<?xml version="1.0" encoding="UTF-8" standalone="no"?>
<svg xmlns="http://www.w3.org/2000/svg" width="1164" height="410" viewBox="0 0 1164 410">
  <defs>
    <style type="text/css"><![CDATA[
      .cell { fill: none; stroke: #222; stroke-width: 0.9; }
      .anum { font: 10px Inter, Arial, Helvetica, sans-serif; fill: #111; }
      .sym  { font: 13px Inter, Arial, Helvetica, sans-serif; font-weight: 600; fill: #111; }
      .name { font: 8px Inter, Arial, Helvetica, sans-serif; fill: #444; }
      .blocklbl { font: 14px Inter, Arial, Helvetica, sans-serif; font-weight: 600; fill: #111; }
      .rowlbl { font: 14px Inter, Arial, Helvetica, sans-serif; font-weight: 600; fill: #111; }
      .guide { stroke: #888; stroke-dasharray: 2 3; }
      .arrowlbl { font: 14px Inter, Arial, Helvetica, sans-serif; font-weight: 600; fill: #111; }
      .arrowline { stroke: #444; stroke-width: 1.2; fill: none; marker-start: url(#arrow); marker-end: url(#arrow); }
    ]]></style>

    <marker id="arrow" viewBox="0 0 10 10" markerWidth="6" markerHeight="6" refX="10" refY="5" orient="auto-start-reverse" markerUnits="strokeWidth">
      <path d="M 0 0 L 10 5 L 0 10 z" fill="#444"/>
    </marker>
  </defs>

<title>Periodic Table of Elements — Left-step Bent &amp; Weinhold format — Madelung-tier arrangement (t = n + ℓ)</title>
<text class="blocklbl" x="582.0" y="36" text-anchor="middle">Periodic Table of Elements — Left-step Bent &amp; Weinhold format — Madelung-tier arrangement (t = n + ℓ)</text>
<text class="blocklbl" x="344.0" y="66" text-anchor="middle">f (ℓ=3)</text>
<line class="guide" x1="120" y1="73" x2="568" y2="73" />
<text class="blocklbl" x="728.0" y="66" text-anchor="middle">d (ℓ=2)</text>
<line class="guide" x1="568" y1="73" x2="888" y2="73" />
<text class="blocklbl" x="984.0" y="66" text-anchor="middle">p (ℓ=1)</text>
<line class="guide" x1="888" y1="73" x2="1080" y2="73" />
<text class="blocklbl" x="1112.0" y="66" text-anchor="middle">s (ℓ=0)</text>
<line class="guide" x1="1080" y1="73" x2="1144" y2="73" />
<text class="rowlbl" x="108" y="121.12" text-anchor="end">t = 1</text>
<text class="rowlbl" x="108" y="153.12" text-anchor="end">t = 2</text>
<text class="rowlbl" x="108" y="185.12" text-anchor="end">t = 3</text>
<text class="rowlbl" x="108" y="217.12" text-anchor="end">t = 4</text>
<text class="rowlbl" x="108" y="249.12" text-anchor="end">t = 5</text>
<text class="rowlbl" x="108" y="281.12" text-anchor="end">t = 6</text>
<text class="rowlbl" x="108" y="313.12" text-anchor="end">t = 7</text>
<text class="rowlbl" x="108" y="345.12" text-anchor="end">t = 8</text>
<g class="guide">
<line x1="120" y1="100" x2="1144" y2="100" />
<line x1="120" y1="132" x2="1144" y2="132" />
<line x1="120" y1="164" x2="1144" y2="164" />
<line x1="120" y1="196" x2="1144" y2="196" />
<line x1="120" y1="228" x2="1144" y2="228" />
<line x1="120" y1="260" x2="1144" y2="260" />
<line x1="120" y1="292" x2="1144" y2="292" />
<line x1="120" y1="324" x2="1144" y2="324" />
</g>
<rect class="cell" x="1080" y="100" width="32" height="32" rx="4" ry="4" style="fill:#fee2e2;stroke:#222;stroke-width:0.9;" />
<text class="anum" x="1084" y="111">1</text>
<text class="sym" x="1096.0" y="124.96000000000001" text-anchor="middle">H</text>
<rect class="cell" x="1112" y="100" width="32" height="32" rx="4" ry="4" style="fill:#fee2e2;stroke:#222;stroke-width:0.9;" />
<text class="anum" x="1116" y="111">2</text>
<text class="sym" x="1128.0" y="124.96000000000001" text-anchor="middle">He</text>
<rect class="cell" x="1080" y="132" width="32" height="32" rx="4" ry="4" style="fill:#fee2e2;stroke:#222;stroke-width:0.9;" />
<text class="anum" x="1084" y="143">3</text>
<text class="sym" x="1096.0" y="156.96" text-anchor="middle">Li</text>
<rect class="cell" x="1112" y="132" width="32" height="32" rx="4" ry="4" style="fill:#fee2e2;stroke:#222;stroke-width:0.9;" />
<text class="anum" x="1116" y="143">4</text>
<text class="sym" x="1128.0" y="156.96" text-anchor="middle">Be</text>
<rect class="cell" x="888" y="164" width="32" height="32" rx="4" ry="4" style="fill:#dcfce7;stroke:#222;stroke-width:0.9;" />
<text class="anum" x="892" y="175">5</text>
<text class="sym" x="904.0" y="188.96" text-anchor="middle">B</text>
<rect class="cell" x="920" y="164" width="32" height="32" rx="4" ry="4" style="fill:#dcfce7;stroke:#222;stroke-width:0.9;" />
<text class="anum" x="924" y="175">6</text>
<text class="sym" x="936.0" y="188.96" text-anchor="middle">C</text>
<rect class="cell" x="952" y="164" width="32" height="32" rx="4" ry="4" style="fill:#dcfce7;stroke:#222;stroke-width:0.9;" />
<text class="anum" x="956" y="175">7</text>
<text class="sym" x="968.0" y="188.96" text-anchor="middle">N</text>
<rect class="cell" x="984" y="164" width="32" height="32" rx="4" ry="4" style="fill:#dcfce7;stroke:#222;stroke-width:0.9;" />
<text class="anum" x="988" y="175">8</text>
<text class="sym" x="1000.0" y="188.96" text-anchor="middle">O</text>
<rect class="cell" x="1016" y="164" width="32" height="32" rx="4" ry="4" style="fill:#dcfce7;stroke:#222;stroke-width:0.9;" />
<text class="anum" x="1020" y="175">9</text>
<text class="sym" x="1032.0" y="188.96" text-anchor="middle">F</text>
<rect class="cell" x="1048" y="164" width="32" height="32" rx="4" ry="4" style="fill:#dcfce7;stroke:#222;stroke-width:0.9;" />
<text class="anum" x="1052" y="175">10</text>
<text class="sym" x="1064.0" y="188.96" text-anchor="middle">Ne</text>
<rect class="cell" x="1080" y="164" width="32" height="32" rx="4" ry="4" style="fill:#fee2e2;stroke:#222;stroke-width:0.9;" />
<text class="anum" x="1084" y="175">11</text>
<text class="sym" x="1096.0" y="188.96" text-anchor="middle">Na</text>
<rect class="cell" x="1112" y="164" width="32" height="32" rx="4" ry="4" style="fill:#fee2e2;stroke:#222;stroke-width:0.9;" />
<text class="anum" x="1116" y="175">12</text>
<text class="sym" x="1128.0" y="188.96" text-anchor="middle">Mg</text>
<rect class="cell" x="888" y="196" width="32" height="32" rx="4" ry="4" style="fill:#dcfce7;stroke:#222;stroke-width:0.9;" />
<text class="anum" x="892" y="207">13</text>
<text class="sym" x="904.0" y="220.96" text-anchor="middle">Al</text>
<rect class="cell" x="920" y="196" width="32" height="32" rx="4" ry="4" style="fill:#dcfce7;stroke:#222;stroke-width:0.9;" />
<text class="anum" x="924" y="207">14</text>
<text class="sym" x="936.0" y="220.96" text-anchor="middle">Si</text>
<rect class="cell" x="952" y="196" width="32" height="32" rx="4" ry="4" style="fill:#dcfce7;stroke:#222;stroke-width:0.9;" />
<text class="anum" x="956" y="207">15</text>
<text class="sym" x="968.0" y="220.96" text-anchor="middle">P</text>
<rect class="cell" x="984" y="196" width="32" height="32" rx="4" ry="4" style="fill:#dcfce7;stroke:#222;stroke-width:0.9;" />
<text class="anum" x="988" y="207">16</text>
<text class="sym" x="1000.0" y="220.96" text-anchor="middle">S</text>
<rect class="cell" x="1016" y="196" width="32" height="32" rx="4" ry="4" style="fill:#dcfce7;stroke:#222;stroke-width:0.9;" />
<text class="anum" x="1020" y="207">17</text>
<text class="sym" x="1032.0" y="220.96" text-anchor="middle">Cl</text>
<rect class="cell" x="1048" y="196" width="32" height="32" rx="4" ry="4" style="fill:#dcfce7;stroke:#222;stroke-width:0.9;" />
<text class="anum" x="1052" y="207">18</text>
<text class="sym" x="1064.0" y="220.96" text-anchor="middle">Ar</text>
<rect class="cell" x="1080" y="196" width="32" height="32" rx="4" ry="4" style="fill:#fee2e2;stroke:#222;stroke-width:0.9;" />
<text class="anum" x="1084" y="207">19</text>
<text class="sym" x="1096.0" y="220.96" text-anchor="middle">K</text>
<rect class="cell" x="1112" y="196" width="32" height="32" rx="4" ry="4" style="fill:#fee2e2;stroke:#222;stroke-width:0.9;" />
<text class="anum" x="1116" y="207">20</text>
<text class="sym" x="1128.0" y="220.96" text-anchor="middle">Ca</text>
<rect class="cell" x="568" y="228" width="32" height="32" rx="4" ry="4" style="fill:#e0f2fe;stroke:#222;stroke-width:0.9;" />
<text class="anum" x="572" y="239">21</text>
<text class="sym" x="584.0" y="252.96" text-anchor="middle">Sc</text>
<rect class="cell" x="600" y="228" width="32" height="32" rx="4" ry="4" style="fill:#e0f2fe;stroke:#222;stroke-width:0.9;" />
<text class="anum" x="604" y="239">22</text>
<text class="sym" x="616.0" y="252.96" text-anchor="middle">Ti</text>
<rect class="cell" x="632" y="228" width="32" height="32" rx="4" ry="4" style="fill:#e0f2fe;stroke:#222;stroke-width:0.9;" />
<text class="anum" x="636" y="239">23</text>
<text class="sym" x="648.0" y="252.96" text-anchor="middle">V</text>
<rect class="cell" x="664" y="228" width="32" height="32" rx="4" ry="4" style="fill:#e0f2fe;stroke:#222;stroke-width:0.9;" />
<text class="anum" x="668" y="239">24</text>
<text class="sym" x="680.0" y="252.96" text-anchor="middle">Cr</text>
<rect class="cell" x="696" y="228" width="32" height="32" rx="4" ry="4" style="fill:#e0f2fe;stroke:#222;stroke-width:0.9;" />
<text class="anum" x="700" y="239">25</text>
<text class="sym" x="712.0" y="252.96" text-anchor="middle">Mn</text>
<rect class="cell" x="728" y="228" width="32" height="32" rx="4" ry="4" style="fill:#e0f2fe;stroke:#222;stroke-width:0.9;" />
<text class="anum" x="732" y="239">26</text>
<text class="sym" x="744.0" y="252.96" text-anchor="middle">Fe</text>
<rect class="cell" x="760" y="228" width="32" height="32" rx="4" ry="4" style="fill:#e0f2fe;stroke:#222;stroke-width:0.9;" />
<text class="anum" x="764" y="239">27</text>
<text class="sym" x="776.0" y="252.96" text-anchor="middle">Co</text>
<rect class="cell" x="792" y="228" width="32" height="32" rx="4" ry="4" style="fill:#e0f2fe;stroke:#222;stroke-width:0.9;" />
<text class="anum" x="796" y="239">28</text>
<text class="sym" x="808.0" y="252.96" text-anchor="middle">Ni</text>
<rect class="cell" x="824" y="228" width="32" height="32" rx="4" ry="4" style="fill:#e0f2fe;stroke:#222;stroke-width:0.9;" />
<text class="anum" x="828" y="239">29</text>
<text class="sym" x="840.0" y="252.96" text-anchor="middle">Cu</text>
<rect class="cell" x="856" y="228" width="32" height="32" rx="4" ry="4" style="fill:#e0f2fe;stroke:#222;stroke-width:0.9;" />
<text class="anum" x="860" y="239">30</text>
<text class="sym" x="872.0" y="252.96" text-anchor="middle">Zn</text>
<rect class="cell" x="888" y="228" width="32" height="32" rx="4" ry="4" style="fill:#dcfce7;stroke:#222;stroke-width:0.9;" />
<text class="anum" x="892" y="239">31</text>
<text class="sym" x="904.0" y="252.96" text-anchor="middle">Ga</text>
<rect class="cell" x="920" y="228" width="32" height="32" rx="4" ry="4" style="fill:#dcfce7;stroke:#222;stroke-width:0.9;" />
<text class="anum" x="924" y="239">32</text>
<text class="sym" x="936.0" y="252.96" text-anchor="middle">Ge</text>
<rect class="cell" x="952" y="228" width="32" height="32" rx="4" ry="4" style="fill:#dcfce7;stroke:#222;stroke-width:0.9;" />
<text class="anum" x="956" y="239">33</text>
<text class="sym" x="968.0" y="252.96" text-anchor="middle">As</text>
<rect class="cell" x="984" y="228" width="32" height="32" rx="4" ry="4" style="fill:#dcfce7;stroke:#222;stroke-width:0.9;" />
<text class="anum" x="988" y="239">34</text>
<text class="sym" x="1000.0" y="252.96" text-anchor="middle">Se</text>
<rect class="cell" x="1016" y="228" width="32" height="32" rx="4" ry="4" style="fill:#dcfce7;stroke:#222;stroke-width:0.9;" />
<text class="anum" x="1020" y="239">35</text>
<text class="sym" x="1032.0" y="252.96" text-anchor="middle">Br</text>
<rect class="cell" x="1048" y="228" width="32" height="32" rx="4" ry="4" style="fill:#dcfce7;stroke:#222;stroke-width:0.9;" />
<text class="anum" x="1052" y="239">36</text>
<text class="sym" x="1064.0" y="252.96" text-anchor="middle">Kr</text>
<rect class="cell" x="1080" y="228" width="32" height="32" rx="4" ry="4" style="fill:#fee2e2;stroke:#222;stroke-width:0.9;" />
<text class="anum" x="1084" y="239">37</text>
<text class="sym" x="1096.0" y="252.96" text-anchor="middle">Rb</text>
<rect class="cell" x="1112" y="228" width="32" height="32" rx="4" ry="4" style="fill:#fee2e2;stroke:#222;stroke-width:0.9;" />
<text class="anum" x="1116" y="239">38</text>
<text class="sym" x="1128.0" y="252.96" text-anchor="middle">Sr</text>
<rect class="cell" x="568" y="260" width="32" height="32" rx="4" ry="4" style="fill:#e0f2fe;stroke:#222;stroke-width:0.9;" />
<text class="anum" x="572" y="271">39</text>
<text class="sym" x="584.0" y="284.96" text-anchor="middle">Y</text>
<rect class="cell" x="600" y="260" width="32" height="32" rx="4" ry="4" style="fill:#e0f2fe;stroke:#222;stroke-width:0.9;" />
<text class="anum" x="604" y="271">40</text>
<text class="sym" x="616.0" y="284.96" text-anchor="middle">Zr</text>
<rect class="cell" x="632" y="260" width="32" height="32" rx="4" ry="4" style="fill:#e0f2fe;stroke:#222;stroke-width:0.9;" />
<text class="anum" x="636" y="271">41</text>
<text class="sym" x="648.0" y="284.96" text-anchor="middle">Nb</text>
<rect class="cell" x="664" y="260" width="32" height="32" rx="4" ry="4" style="fill:#e0f2fe;stroke:#222;stroke-width:0.9;" />
<text class="anum" x="668" y="271">42</text>
<text class="sym" x="680.0" y="284.96" text-anchor="middle">Mo</text>
<rect class="cell" x="696" y="260" width="32" height="32" rx="4" ry="4" style="fill:#e0f2fe;stroke:#222;stroke-width:0.9;" />
<text class="anum" x="700" y="271">43</text>
<text class="sym" x="712.0" y="284.96" text-anchor="middle">Tc</text>
<rect class="cell" x="728" y="260" width="32" height="32" rx="4" ry="4" style="fill:#e0f2fe;stroke:#222;stroke-width:0.9;" />
<text class="anum" x="732" y="271">44</text>
<text class="sym" x="744.0" y="284.96" text-anchor="middle">Ru</text>
<rect class="cell" x="760" y="260" width="32" height="32" rx="4" ry="4" style="fill:#e0f2fe;stroke:#222;stroke-width:0.9;" />
<text class="anum" x="764" y="271">45</text>
<text class="sym" x="776.0" y="284.96" text-anchor="middle">Rh</text>
<rect class="cell" x="792" y="260" width="32" height="32" rx="4" ry="4" style="fill:#e0f2fe;stroke:#222;stroke-width:0.9;" />
<text class="anum" x="796" y="271">46</text>
<text class="sym" x="808.0" y="284.96" text-anchor="middle">Pd</text>
<rect class="cell" x="824" y="260" width="32" height="32" rx="4" ry="4" style="fill:#e0f2fe;stroke:#222;stroke-width:0.9;" />
<text class="anum" x="828" y="271">47</text>
<text class="sym" x="840.0" y="284.96" text-anchor="middle">Ag</text>
<rect class="cell" x="856" y="260" width="32" height="32" rx="4" ry="4" style="fill:#e0f2fe;stroke:#222;stroke-width:0.9;" />
<text class="anum" x="860" y="271">48</text>
<text class="sym" x="872.0" y="284.96" text-anchor="middle">Cd</text>
<rect class="cell" x="888" y="260" width="32" height="32" rx="4" ry="4" style="fill:#dcfce7;stroke:#222;stroke-width:0.9;" />
<text class="anum" x="892" y="271">49</text>
<text class="sym" x="904.0" y="284.96" text-anchor="middle">In</text>
<rect class="cell" x="920" y="260" width="32" height="32" rx="4" ry="4" style="fill:#dcfce7;stroke:#222;stroke-width:0.9;" />
<text class="anum" x="924" y="271">50</text>
<text class="sym" x="936.0" y="284.96" text-anchor="middle">Sn</text>
<rect class="cell" x="952" y="260" width="32" height="32" rx="4" ry="4" style="fill:#dcfce7;stroke:#222;stroke-width:0.9;" />
<text class="anum" x="956" y="271">51</text>
<text class="sym" x="968.0" y="284.96" text-anchor="middle">Sb</text>
<rect class="cell" x="984" y="260" width="32" height="32" rx="4" ry="4" style="fill:#dcfce7;stroke:#222;stroke-width:0.9;" />
<text class="anum" x="988" y="271">52</text>
<text class="sym" x="1000.0" y="284.96" text-anchor="middle">Te</text>
<rect class="cell" x="1016" y="260" width="32" height="32" rx="4" ry="4" style="fill:#dcfce7;stroke:#222;stroke-width:0.9;" />
<text class="anum" x="1020" y="271">53</text>
<text class="sym" x="1032.0" y="284.96" text-anchor="middle">I</text>
<rect class="cell" x="1048" y="260" width="32" height="32" rx="4" ry="4" style="fill:#dcfce7;stroke:#222;stroke-width:0.9;" />
<text class="anum" x="1052" y="271">54</text>
<text class="sym" x="1064.0" y="284.96" text-anchor="middle">Xe</text>
<rect class="cell" x="1080" y="260" width="32" height="32" rx="4" ry="4" style="fill:#fee2e2;stroke:#222;stroke-width:0.9;" />
<text class="anum" x="1084" y="271">55</text>
<text class="sym" x="1096.0" y="284.96" text-anchor="middle">Cs</text>
<rect class="cell" x="1112" y="260" width="32" height="32" rx="4" ry="4" style="fill:#fee2e2;stroke:#222;stroke-width:0.9;" />
<text class="anum" x="1116" y="271">56</text>
<text class="sym" x="1128.0" y="284.96" text-anchor="middle">Ba</text>
<rect class="cell" x="120" y="292" width="32" height="32" rx="4" ry="4" style="fill:#f3e8ff;stroke:#222;stroke-width:0.9;" />
<text class="anum" x="124" y="303">57</text>
<text class="sym" x="136.0" y="316.96" text-anchor="middle">La</text>
<rect class="cell" x="152" y="292" width="32" height="32" rx="4" ry="4" style="fill:#f3e8ff;stroke:#222;stroke-width:0.9;" />
<text class="anum" x="156" y="303">58</text>
<text class="sym" x="168.0" y="316.96" text-anchor="middle">Ce</text>
<rect class="cell" x="184" y="292" width="32" height="32" rx="4" ry="4" style="fill:#f3e8ff;stroke:#222;stroke-width:0.9;" />
<text class="anum" x="188" y="303">59</text>
<text class="sym" x="200.0" y="316.96" text-anchor="middle">Pr</text>
<rect class="cell" x="216" y="292" width="32" height="32" rx="4" ry="4" style="fill:#f3e8ff;stroke:#222;stroke-width:0.9;" />
<text class="anum" x="220" y="303">60</text>
<text class="sym" x="232.0" y="316.96" text-anchor="middle">Nd</text>
<rect class="cell" x="248" y="292" width="32" height="32" rx="4" ry="4" style="fill:#f3e8ff;stroke:#222;stroke-width:0.9;" />
<text class="anum" x="252" y="303">61</text>
<text class="sym" x="264.0" y="316.96" text-anchor="middle">Pm</text>
<rect class="cell" x="280" y="292" width="32" height="32" rx="4" ry="4" style="fill:#f3e8ff;stroke:#222;stroke-width:0.9;" />
<text class="anum" x="284" y="303">62</text>
<text class="sym" x="296.0" y="316.96" text-anchor="middle">Sm</text>
<rect class="cell" x="312" y="292" width="32" height="32" rx="4" ry="4" style="fill:#f3e8ff;stroke:#222;stroke-width:0.9;" />
<text class="anum" x="316" y="303">63</text>
<text class="sym" x="328.0" y="316.96" text-anchor="middle">Eu</text>
<rect class="cell" x="344" y="292" width="32" height="32" rx="4" ry="4" style="fill:#f3e8ff;stroke:#222;stroke-width:0.9;" />
<text class="anum" x="348" y="303">64</text>
<text class="sym" x="360.0" y="316.96" text-anchor="middle">Gd</text>
<rect class="cell" x="376" y="292" width="32" height="32" rx="4" ry="4" style="fill:#f3e8ff;stroke:#222;stroke-width:0.9;" />
<text class="anum" x="380" y="303">65</text>
<text class="sym" x="392.0" y="316.96" text-anchor="middle">Tb</text>
<rect class="cell" x="408" y="292" width="32" height="32" rx="4" ry="4" style="fill:#f3e8ff;stroke:#222;stroke-width:0.9;" />
<text class="anum" x="412" y="303">66</text>
<text class="sym" x="424.0" y="316.96" text-anchor="middle">Dy</text>
<rect class="cell" x="440" y="292" width="32" height="32" rx="4" ry="4" style="fill:#f3e8ff;stroke:#222;stroke-width:0.9;" />
<text class="anum" x="444" y="303">67</text>
<text class="sym" x="456.0" y="316.96" text-anchor="middle">Ho</text>
<rect class="cell" x="472" y="292" width="32" height="32" rx="4" ry="4" style="fill:#f3e8ff;stroke:#222;stroke-width:0.9;" />
<text class="anum" x="476" y="303">68</text>
<text class="sym" x="488.0" y="316.96" text-anchor="middle">Er</text>
<rect class="cell" x="504" y="292" width="32" height="32" rx="4" ry="4" style="fill:#f3e8ff;stroke:#222;stroke-width:0.9;" />
<text class="anum" x="508" y="303">69</text>
<text class="sym" x="520.0" y="316.96" text-anchor="middle">Tm</text>
<rect class="cell" x="536" y="292" width="32" height="32" rx="4" ry="4" style="fill:#f3e8ff;stroke:#222;stroke-width:0.9;" />
<text class="anum" x="540" y="303">70</text>
<text class="sym" x="552.0" y="316.96" text-anchor="middle">Yb</text>
<rect class="cell" x="568" y="292" width="32" height="32" rx="4" ry="4" style="fill:#e0f2fe;stroke:#222;stroke-width:0.9;" />
<text class="anum" x="572" y="303">71</text>
<text class="sym" x="584.0" y="316.96" text-anchor="middle">Lu</text>
<rect class="cell" x="600" y="292" width="32" height="32" rx="4" ry="4" style="fill:#e0f2fe;stroke:#222;stroke-width:0.9;" />
<text class="anum" x="604" y="303">72</text>
<text class="sym" x="616.0" y="316.96" text-anchor="middle">Hf</text>
<rect class="cell" x="632" y="292" width="32" height="32" rx="4" ry="4" style="fill:#e0f2fe;stroke:#222;stroke-width:0.9;" />
<text class="anum" x="636" y="303">73</text>
<text class="sym" x="648.0" y="316.96" text-anchor="middle">Ta</text>
<rect class="cell" x="664" y="292" width="32" height="32" rx="4" ry="4" style="fill:#e0f2fe;stroke:#222;stroke-width:0.9;" />
<text class="anum" x="668" y="303">74</text>
<text class="sym" x="680.0" y="316.96" text-anchor="middle">W</text>
<rect class="cell" x="696" y="292" width="32" height="32" rx="4" ry="4" style="fill:#e0f2fe;stroke:#222;stroke-width:0.9;" />
<text class="anum" x="700" y="303">75</text>
<text class="sym" x="712.0" y="316.96" text-anchor="middle">Re</text>
<rect class="cell" x="728" y="292" width="32" height="32" rx="4" ry="4" style="fill:#e0f2fe;stroke:#222;stroke-width:0.9;" />
<text class="anum" x="732" y="303">76</text>
<text class="sym" x="744.0" y="316.96" text-anchor="middle">Os</text>
<rect class="cell" x="760" y="292" width="32" height="32" rx="4" ry="4" style="fill:#e0f2fe;stroke:#222;stroke-width:0.9;" />
<text class="anum" x="764" y="303">77</text>
<text class="sym" x="776.0" y="316.96" text-anchor="middle">Ir</text>
<rect class="cell" x="792" y="292" width="32" height="32" rx="4" ry="4" style="fill:#e0f2fe;stroke:#222;stroke-width:0.9;" />
<text class="anum" x="796" y="303">78</text>
<text class="sym" x="808.0" y="316.96" text-anchor="middle">Pt</text>
<rect class="cell" x="824" y="292" width="32" height="32" rx="4" ry="4" style="fill:#e0f2fe;stroke:#222;stroke-width:0.9;" />
<text class="anum" x="828" y="303">79</text>
<text class="sym" x="840.0" y="316.96" text-anchor="middle">Au</text>
<rect class="cell" x="856" y="292" width="32" height="32" rx="4" ry="4" style="fill:#e0f2fe;stroke:#222;stroke-width:0.9;" />
<text class="anum" x="860" y="303">80</text>
<text class="sym" x="872.0" y="316.96" text-anchor="middle">Hg</text>
<rect class="cell" x="888" y="292" width="32" height="32" rx="4" ry="4" style="fill:#dcfce7;stroke:#222;stroke-width:0.9;" />
<text class="anum" x="892" y="303">81</text>
<text class="sym" x="904.0" y="316.96" text-anchor="middle">Tl</text>
<rect class="cell" x="920" y="292" width="32" height="32" rx="4" ry="4" style="fill:#dcfce7;stroke:#222;stroke-width:0.9;" />
<text class="anum" x="924" y="303">82</text>
<text class="sym" x="936.0" y="316.96" text-anchor="middle">Pb</text>
<rect class="cell" x="952" y="292" width="32" height="32" rx="4" ry="4" style="fill:#dcfce7;stroke:#222;stroke-width:0.9;" />
<text class="anum" x="956" y="303">83</text>
<text class="sym" x="968.0" y="316.96" text-anchor="middle">Bi</text>
<rect class="cell" x="984" y="292" width="32" height="32" rx="4" ry="4" style="fill:#dcfce7;stroke:#222;stroke-width:0.9;" />
<text class="anum" x="988" y="303">84</text>
<text class="sym" x="1000.0" y="316.96" text-anchor="middle">Po</text>
<rect class="cell" x="1016" y="292" width="32" height="32" rx="4" ry="4" style="fill:#dcfce7;stroke:#222;stroke-width:0.9;" />
<text class="anum" x="1020" y="303">85</text>
<text class="sym" x="1032.0" y="316.96" text-anchor="middle">At</text>
<rect class="cell" x="1048" y="292" width="32" height="32" rx="4" ry="4" style="fill:#dcfce7;stroke:#222;stroke-width:0.9;" />
<text class="anum" x="1052" y="303">86</text>
<text class="sym" x="1064.0" y="316.96" text-anchor="middle">Rn</text>
<rect class="cell" x="1080" y="292" width="32" height="32" rx="4" ry="4" style="fill:#fee2e2;stroke:#222;stroke-width:0.9;" />
<text class="anum" x="1084" y="303">87</text>
<text class="sym" x="1096.0" y="316.96" text-anchor="middle">Fr</text>
<rect class="cell" x="1112" y="292" width="32" height="32" rx="4" ry="4" style="fill:#fee2e2;stroke:#222;stroke-width:0.9;" />
<text class="anum" x="1116" y="303">88</text>
<text class="sym" x="1128.0" y="316.96" text-anchor="middle">Ra</text>
<rect class="cell" x="120" y="324" width="32" height="32" rx="4" ry="4" style="fill:#f3e8ff;stroke:#222;stroke-width:0.9;" />
<text class="anum" x="124" y="335">89</text>
<text class="sym" x="136.0" y="348.96" text-anchor="middle">Ac</text>
<rect class="cell" x="152" y="324" width="32" height="32" rx="4" ry="4" style="fill:#f3e8ff;stroke:#222;stroke-width:0.9;" />
<text class="anum" x="156" y="335">90</text>
<text class="sym" x="168.0" y="348.96" text-anchor="middle">Th</text>
<rect class="cell" x="184" y="324" width="32" height="32" rx="4" ry="4" style="fill:#f3e8ff;stroke:#222;stroke-width:0.9;" />
<text class="anum" x="188" y="335">91</text>
<text class="sym" x="200.0" y="348.96" text-anchor="middle">Pa</text>
<rect class="cell" x="216" y="324" width="32" height="32" rx="4" ry="4" style="fill:#f3e8ff;stroke:#222;stroke-width:0.9;" />
<text class="anum" x="220" y="335">92</text>
<text class="sym" x="232.0" y="348.96" text-anchor="middle">U</text>
<rect class="cell" x="248" y="324" width="32" height="32" rx="4" ry="4" style="fill:#f3e8ff;stroke:#222;stroke-width:0.9;" />
<text class="anum" x="252" y="335">93</text>
<text class="sym" x="264.0" y="348.96" text-anchor="middle">Np</text>
<rect class="cell" x="280" y="324" width="32" height="32" rx="4" ry="4" style="fill:#f3e8ff;stroke:#222;stroke-width:0.9;" />
<text class="anum" x="284" y="335">94</text>
<text class="sym" x="296.0" y="348.96" text-anchor="middle">Pu</text>
<rect class="cell" x="312" y="324" width="32" height="32" rx="4" ry="4" style="fill:#f3e8ff;stroke:#222;stroke-width:0.9;" />
<text class="anum" x="316" y="335">95</text>
<text class="sym" x="328.0" y="348.96" text-anchor="middle">Am</text>
<rect class="cell" x="344" y="324" width="32" height="32" rx="4" ry="4" style="fill:#f3e8ff;stroke:#222;stroke-width:0.9;" />
<text class="anum" x="348" y="335">96</text>
<text class="sym" x="360.0" y="348.96" text-anchor="middle">Cm</text>
<rect class="cell" x="376" y="324" width="32" height="32" rx="4" ry="4" style="fill:#f3e8ff;stroke:#222;stroke-width:0.9;" />
<text class="anum" x="380" y="335">97</text>
<text class="sym" x="392.0" y="348.96" text-anchor="middle">Bk</text>
<rect class="cell" x="408" y="324" width="32" height="32" rx="4" ry="4" style="fill:#f3e8ff;stroke:#222;stroke-width:0.9;" />
<text class="anum" x="412" y="335">98</text>
<text class="sym" x="424.0" y="348.96" text-anchor="middle">Cf</text>
<rect class="cell" x="440" y="324" width="32" height="32" rx="4" ry="4" style="fill:#f3e8ff;stroke:#222;stroke-width:0.9;" />
<text class="anum" x="444" y="335">99</text>
<text class="sym" x="456.0" y="348.96" text-anchor="middle">Es</text>
<rect class="cell" x="472" y="324" width="32" height="32" rx="4" ry="4" style="fill:#f3e8ff;stroke:#222;stroke-width:0.9;" />
<text class="anum" x="476" y="335">100</text>
<text class="sym" x="488.0" y="348.96" text-anchor="middle">Fm</text>
<rect class="cell" x="504" y="324" width="32" height="32" rx="4" ry="4" style="fill:#f3e8ff;stroke:#222;stroke-width:0.9;" />
<text class="anum" x="508" y="335">101</text>
<text class="sym" x="520.0" y="348.96" text-anchor="middle">Md</text>
<rect class="cell" x="536" y="324" width="32" height="32" rx="4" ry="4" style="fill:#f3e8ff;stroke:#222;stroke-width:0.9;" />
<text class="anum" x="540" y="335">102</text>
<text class="sym" x="552.0" y="348.96" text-anchor="middle">No</text>
<rect class="cell" x="568" y="324" width="32" height="32" rx="4" ry="4" style="fill:#e0f2fe;stroke:#222;stroke-width:0.9;" />
<text class="anum" x="572" y="335">103</text>
<text class="sym" x="584.0" y="348.96" text-anchor="middle">Lr</text>
<rect class="cell" x="600" y="324" width="32" height="32" rx="4" ry="4" style="fill:#e0f2fe;stroke:#222;stroke-width:0.9;" />
<text class="anum" x="604" y="335">104</text>
<text class="sym" x="616.0" y="348.96" text-anchor="middle">Rf</text>
<rect class="cell" x="632" y="324" width="32" height="32" rx="4" ry="4" style="fill:#e0f2fe;stroke:#222;stroke-width:0.9;" />
<text class="anum" x="636" y="335">105</text>
<text class="sym" x="648.0" y="348.96" text-anchor="middle">Db</text>
<rect class="cell" x="664" y="324" width="32" height="32" rx="4" ry="4" style="fill:#e0f2fe;stroke:#222;stroke-width:0.9;" />
<text class="anum" x="668" y="335">106</text>
<text class="sym" x="680.0" y="348.96" text-anchor="middle">Sg</text>
<rect class="cell" x="696" y="324" width="32" height="32" rx="4" ry="4" style="fill:#e0f2fe;stroke:#222;stroke-width:0.9;" />
<text class="anum" x="700" y="335">107</text>
<text class="sym" x="712.0" y="348.96" text-anchor="middle">Bh</text>
<rect class="cell" x="728" y="324" width="32" height="32" rx="4" ry="4" style="fill:#e0f2fe;stroke:#222;stroke-width:0.9;" />
<text class="anum" x="732" y="335">108</text>
<text class="sym" x="744.0" y="348.96" text-anchor="middle">Hs</text>
<rect class="cell" x="760" y="324" width="32" height="32" rx="4" ry="4" style="fill:#e0f2fe;stroke:#222;stroke-width:0.9;" />
<text class="anum" x="764" y="335">109</text>
<text class="sym" x="776.0" y="348.96" text-anchor="middle">Mt</text>
<rect class="cell" x="792" y="324" width="32" height="32" rx="4" ry="4" style="fill:#e0f2fe;stroke:#222;stroke-width:0.9;" />
<text class="anum" x="796" y="335">110</text>
<text class="sym" x="808.0" y="348.96" text-anchor="middle">Ds</text>
<rect class="cell" x="824" y="324" width="32" height="32" rx="4" ry="4" style="fill:#e0f2fe;stroke:#222;stroke-width:0.9;" />
<text class="anum" x="828" y="335">111</text>
<text class="sym" x="840.0" y="348.96" text-anchor="middle">Rg</text>
<rect class="cell" x="856" y="324" width="32" height="32" rx="4" ry="4" style="fill:#e0f2fe;stroke:#222;stroke-width:0.9;" />
<text class="anum" x="860" y="335">112</text>
<text class="sym" x="872.0" y="348.96" text-anchor="middle">Cn</text>
<rect class="cell" x="888" y="324" width="32" height="32" rx="4" ry="4" style="fill:#dcfce7;stroke:#222;stroke-width:0.9;" />
<text class="anum" x="892" y="335">113</text>
<text class="sym" x="904.0" y="348.96" text-anchor="middle">Nh</text>
<rect class="cell" x="920" y="324" width="32" height="32" rx="4" ry="4" style="fill:#dcfce7;stroke:#222;stroke-width:0.9;" />
<text class="anum" x="924" y="335">114</text>
<text class="sym" x="936.0" y="348.96" text-anchor="middle">Fl</text>
<rect class="cell" x="952" y="324" width="32" height="32" rx="4" ry="4" style="fill:#dcfce7;stroke:#222;stroke-width:0.9;" />
<text class="anum" x="956" y="335">115</text>
<text class="sym" x="968.0" y="348.96" text-anchor="middle">Mc</text>
<rect class="cell" x="984" y="324" width="32" height="32" rx="4" ry="4" style="fill:#dcfce7;stroke:#222;stroke-width:0.9;" />
<text class="anum" x="988" y="335">116</text>
<text class="sym" x="1000.0" y="348.96" text-anchor="middle">Lv</text>
<rect class="cell" x="1016" y="324" width="32" height="32" rx="4" ry="4" style="fill:#dcfce7;stroke:#222;stroke-width:0.9;" />
<text class="anum" x="1020" y="335">117</text>
<text class="sym" x="1032.0" y="348.96" text-anchor="middle">Ts</text>
<rect class="cell" x="1048" y="324" width="32" height="32" rx="4" ry="4" style="fill:#dcfce7;stroke:#222;stroke-width:0.9;" />
<text class="anum" x="1052" y="335">118</text>
<text class="sym" x="1064.0" y="348.96" text-anchor="middle">Og</text>
<line class="arrowline" x1="120" y1="380" x2="568" y2="380" />
<text class="arrowlbl" x="344.0" y="374" text-anchor="middle">f</text>
<line class="arrowline" x1="568" y1="380" x2="888" y2="380" />
<text class="arrowlbl" x="728.0" y="374" text-anchor="middle">d</text>
<line class="arrowline" x1="888" y1="380" x2="1080" y2="380" />
<text class="arrowlbl" x="984.0" y="374" text-anchor="middle">p</text>
<line class="arrowline" x1="1080" y1="380" x2="1144" y2="380" />
<text class="arrowlbl" x="1112.0" y="374" text-anchor="middle">s</text>
</svg>
